<?xml version="1.0" encoding="utf-8"?>
<!-- Generator: Adobe Illustrator 16.0.0, SVG Export Plug-In . SVG Version: 6.00 Build 0)  -->
<!DOCTYPE svg PUBLIC "-//W3C//DTD SVG 1.1//EN" "http://www.w3.org/Graphics/SVG/1.1/DTD/svg11.dtd">
<svg version="1.1" id="Layer_1" xmlns="http://www.w3.org/2000/svg" xmlns:xlink="http://www.w3.org/1999/xlink" x="0px" y="0px"
	 width="500px" height="500px" viewBox="0 0 500 500" enable-background="new 0 0 500 500" xml:space="preserve">
<path fill="#FFC00F" d="M187.5,41.667c-81.25,0-145.834,64.583-145.834,145.833S106.25,333.334,187.5,333.334
	S333.333,268.75,333.333,187.5S268.75,41.667,187.5,41.667z M156.25,208.333c-29.167,0-52.084-22.917-52.084-52.083
	s22.917-52.083,52.084-52.083c29.166,0,52.083,22.917,52.083,52.083S185.416,208.333,156.25,208.333z"/>
<path fill="#FFC00F" d="M312.5,229.167L229.166,312.5l41.667,41.666l0,0H312.5v41.668l0,0h41.666V437.5l14.584,14.583
	c4.166,4.167,8.333,6.25,14.583,6.25H437.5c12.5,0,20.833-8.333,20.833-20.833v-54.166c0-6.25-2.083-10.418-6.25-14.584
	L312.5,229.167z"/>
</svg>
